<mxfile host="app.diagrams.net" agent="Mozilla/5.0 (X11; Linux x86_64) AppleWebKit/537.36 (KHTML, like Gecko) Chrome/129.0.0.0 Safari/537.36" version="24.7.17">
  <diagram name="PÃ gina-1" id="WrCmzgsMV7RpNrengF-H">
    <mxGraphModel grid="1" page="1" gridSize="10" guides="1" tooltips="1" connect="1" arrows="1" fold="1" pageScale="1" pageWidth="827" pageHeight="1169" math="0" shadow="0">
      <root>
        <mxCell id="0" />
        <mxCell id="1" parent="0" />
        <mxCell id="E1_POTscRmN9e1fPYbz3-13" style="edgeStyle=orthogonalEdgeStyle;rounded=0;orthogonalLoop=1;jettySize=auto;html=1;exitX=0.5;exitY=1;exitDx=0;exitDy=0;entryX=0.5;entryY=0;entryDx=0;entryDy=0;" edge="1" parent="1" source="E1_POTscRmN9e1fPYbz3-1" target="E1_POTscRmN9e1fPYbz3-2">
          <mxGeometry relative="1" as="geometry" />
        </mxCell>
        <mxCell id="E1_POTscRmN9e1fPYbz3-1" value="Empleado" style="rounded=0;whiteSpace=wrap;html=1;" vertex="1" parent="1">
          <mxGeometry x="280" y="120" width="80" height="40" as="geometry" />
        </mxCell>
        <mxCell id="E1_POTscRmN9e1fPYbz3-2" value="Apellido" style="rounded=0;whiteSpace=wrap;html=1;" vertex="1" parent="1">
          <mxGeometry x="40" y="200" width="50" height="40" as="geometry" />
        </mxCell>
        <mxCell id="E1_POTscRmN9e1fPYbz3-3" value="Nombre" style="rounded=0;whiteSpace=wrap;html=1;" vertex="1" parent="1">
          <mxGeometry x="120" y="200" width="50" height="40" as="geometry" />
        </mxCell>
        <mxCell id="E1_POTscRmN9e1fPYbz3-4" value="NumEmpleado" style="rounded=0;whiteSpace=wrap;html=1;" vertex="1" parent="1">
          <mxGeometry x="200" y="200" width="90" height="40" as="geometry" />
        </mxCell>
        <mxCell id="E1_POTscRmN9e1fPYbz3-5" value="Email" style="rounded=0;whiteSpace=wrap;html=1;" vertex="1" parent="1">
          <mxGeometry x="310" y="200" width="40" height="40" as="geometry" />
        </mxCell>
        <mxCell id="E1_POTscRmN9e1fPYbz3-6" value="Empresa" style="rounded=0;whiteSpace=wrap;html=1;" vertex="1" parent="1">
          <mxGeometry x="280" y="40" width="80" height="40" as="geometry" />
        </mxCell>
        <mxCell id="E1_POTscRmN9e1fPYbz3-7" value="Telefono" style="rounded=0;whiteSpace=wrap;html=1;" vertex="1" parent="1">
          <mxGeometry x="380" y="200" width="60" height="40" as="geometry" />
        </mxCell>
        <mxCell id="E1_POTscRmN9e1fPYbz3-25" value="" style="edgeStyle=orthogonalEdgeStyle;rounded=0;orthogonalLoop=1;jettySize=auto;html=1;exitX=0.5;exitY=1;exitDx=0;exitDy=0;" edge="1" parent="1" source="E1_POTscRmN9e1fPYbz3-8" target="E1_POTscRmN9e1fPYbz3-24">
          <mxGeometry relative="1" as="geometry" />
        </mxCell>
        <mxCell id="E1_POTscRmN9e1fPYbz3-27" value="" style="edgeStyle=orthogonalEdgeStyle;rounded=0;orthogonalLoop=1;jettySize=auto;html=1;" edge="1" parent="1" source="E1_POTscRmN9e1fPYbz3-8" target="E1_POTscRmN9e1fPYbz3-26">
          <mxGeometry relative="1" as="geometry" />
        </mxCell>
        <mxCell id="E1_POTscRmN9e1fPYbz3-28" value="" style="edgeStyle=orthogonalEdgeStyle;rounded=0;orthogonalLoop=1;jettySize=auto;html=1;" edge="1" parent="1" source="E1_POTscRmN9e1fPYbz3-8" target="E1_POTscRmN9e1fPYbz3-26">
          <mxGeometry relative="1" as="geometry" />
        </mxCell>
        <mxCell id="E1_POTscRmN9e1fPYbz3-29" value="" style="edgeStyle=orthogonalEdgeStyle;rounded=0;orthogonalLoop=1;jettySize=auto;html=1;" edge="1" parent="1" source="E1_POTscRmN9e1fPYbz3-8" target="E1_POTscRmN9e1fPYbz3-26">
          <mxGeometry relative="1" as="geometry" />
        </mxCell>
        <mxCell id="E1_POTscRmN9e1fPYbz3-32" style="edgeStyle=orthogonalEdgeStyle;rounded=0;orthogonalLoop=1;jettySize=auto;html=1;exitX=0.5;exitY=1;exitDx=0;exitDy=0;entryX=0.5;entryY=0;entryDx=0;entryDy=0;" edge="1" parent="1" source="E1_POTscRmN9e1fPYbz3-8" target="E1_POTscRmN9e1fPYbz3-31">
          <mxGeometry relative="1" as="geometry" />
        </mxCell>
        <mxCell id="E1_POTscRmN9e1fPYbz3-8" value="Direccion" style="rounded=0;whiteSpace=wrap;html=1;" vertex="1" parent="1">
          <mxGeometry x="470" y="200" width="60" height="40" as="geometry" />
        </mxCell>
        <mxCell id="E1_POTscRmN9e1fPYbz3-14" style="edgeStyle=orthogonalEdgeStyle;rounded=0;orthogonalLoop=1;jettySize=auto;html=1;exitX=0.5;exitY=1;exitDx=0;exitDy=0;entryX=0.5;entryY=0;entryDx=0;entryDy=0;" edge="1" parent="1" source="E1_POTscRmN9e1fPYbz3-1" target="E1_POTscRmN9e1fPYbz3-3">
          <mxGeometry relative="1" as="geometry">
            <mxPoint x="330" y="170" as="sourcePoint" />
            <mxPoint x="75" y="210" as="targetPoint" />
          </mxGeometry>
        </mxCell>
        <mxCell id="E1_POTscRmN9e1fPYbz3-15" style="edgeStyle=orthogonalEdgeStyle;rounded=0;orthogonalLoop=1;jettySize=auto;html=1;exitX=0.5;exitY=1;exitDx=0;exitDy=0;entryX=0.5;entryY=0;entryDx=0;entryDy=0;" edge="1" parent="1" source="E1_POTscRmN9e1fPYbz3-1" target="E1_POTscRmN9e1fPYbz3-4">
          <mxGeometry relative="1" as="geometry">
            <mxPoint x="340" y="180" as="sourcePoint" />
            <mxPoint x="85" y="220" as="targetPoint" />
          </mxGeometry>
        </mxCell>
        <mxCell id="E1_POTscRmN9e1fPYbz3-16" style="edgeStyle=orthogonalEdgeStyle;rounded=0;orthogonalLoop=1;jettySize=auto;html=1;exitX=0.5;exitY=1;exitDx=0;exitDy=0;entryX=0.5;entryY=0;entryDx=0;entryDy=0;" edge="1" parent="1" source="E1_POTscRmN9e1fPYbz3-1" target="E1_POTscRmN9e1fPYbz3-5">
          <mxGeometry relative="1" as="geometry">
            <mxPoint x="350" y="190" as="sourcePoint" />
            <mxPoint x="95" y="230" as="targetPoint" />
          </mxGeometry>
        </mxCell>
        <mxCell id="E1_POTscRmN9e1fPYbz3-17" style="edgeStyle=orthogonalEdgeStyle;rounded=0;orthogonalLoop=1;jettySize=auto;html=1;exitX=0.5;exitY=1;exitDx=0;exitDy=0;entryX=0.5;entryY=0;entryDx=0;entryDy=0;" edge="1" parent="1" source="E1_POTscRmN9e1fPYbz3-1" target="E1_POTscRmN9e1fPYbz3-7">
          <mxGeometry relative="1" as="geometry">
            <mxPoint x="360" y="200" as="sourcePoint" />
            <mxPoint x="105" y="240" as="targetPoint" />
          </mxGeometry>
        </mxCell>
        <mxCell id="E1_POTscRmN9e1fPYbz3-18" style="edgeStyle=orthogonalEdgeStyle;rounded=0;orthogonalLoop=1;jettySize=auto;html=1;exitX=0.5;exitY=1;exitDx=0;exitDy=0;" edge="1" parent="1" source="E1_POTscRmN9e1fPYbz3-6">
          <mxGeometry relative="1" as="geometry">
            <mxPoint x="370" y="210" as="sourcePoint" />
            <mxPoint x="320" y="120" as="targetPoint" />
          </mxGeometry>
        </mxCell>
        <mxCell id="E1_POTscRmN9e1fPYbz3-19" style="edgeStyle=orthogonalEdgeStyle;rounded=0;orthogonalLoop=1;jettySize=auto;html=1;exitX=0.5;exitY=1;exitDx=0;exitDy=0;entryX=0.5;entryY=0;entryDx=0;entryDy=0;" edge="1" parent="1" source="E1_POTscRmN9e1fPYbz3-1" target="E1_POTscRmN9e1fPYbz3-8">
          <mxGeometry relative="1" as="geometry">
            <mxPoint x="380" y="220" as="sourcePoint" />
            <mxPoint x="125" y="260" as="targetPoint" />
          </mxGeometry>
        </mxCell>
        <mxCell id="E1_POTscRmN9e1fPYbz3-24" value="Calle" style="whiteSpace=wrap;html=1;rounded=0;" vertex="1" parent="1">
          <mxGeometry x="414" y="280" width="44" height="40" as="geometry" />
        </mxCell>
        <mxCell id="E1_POTscRmN9e1fPYbz3-26" value="Ciudad" style="whiteSpace=wrap;html=1;rounded=0;" vertex="1" parent="1">
          <mxGeometry x="475" y="280" width="50" height="40" as="geometry" />
        </mxCell>
        <mxCell id="E1_POTscRmN9e1fPYbz3-31" value="CP" style="whiteSpace=wrap;html=1;rounded=0;" vertex="1" parent="1">
          <mxGeometry x="540" y="280" width="40" height="40" as="geometry" />
        </mxCell>
      </root>
    </mxGraphModel>
  </diagram>
</mxfile>
